<svg width="134" height="49" viewBox="0 0 134 49" fill="none" xmlns="http://www.w3.org/2000/svg">
<path d="M0.141602 33.17V10.271H7.87897C9.67541 10.271 11.1439 10.5952 12.2843 11.2438C13.4323 11.8848 14.282 12.7532 14.8336 13.849C15.3853 14.9447 15.6611 16.1672 15.6611 17.5164C15.6611 18.8656 15.3853 20.0918 14.8336 21.195C14.2895 22.2982 13.4472 23.1778 12.3067 23.8337C11.1662 24.4822 9.70522 24.8065 7.92369 24.8065H2.37783V22.3466H7.83424C9.06417 22.3466 10.0518 22.1342 10.7973 21.7093C11.5427 21.2844 12.0831 20.7105 12.4185 19.9874C12.7614 19.2569 12.9329 18.4332 12.9329 17.5164C12.9329 16.5995 12.7614 15.7796 12.4185 15.0565C12.0831 14.3335 11.5389 13.767 10.7861 13.357C10.0332 12.9396 9.03435 12.7308 7.78952 12.7308H2.91453V33.17H0.141602Z" fill="black"/>
<path d="M30.5935 26.1482V15.9957H33.2323V33.17H30.5935V30.2629H30.4146C30.0121 31.135 29.3859 31.8767 28.5362 32.4879C27.6864 33.0917 26.613 33.3936 25.316 33.3936C24.2426 33.3936 23.2885 33.1588 22.4536 32.6892C21.6188 32.2121 20.9628 31.4965 20.4857 30.5424C20.0087 29.5808 19.7701 28.3695 19.7701 26.9085V15.9957H22.4089V26.7296C22.4089 27.9819 22.7592 28.9808 23.4599 29.7262C24.1681 30.4716 25.07 30.8443 26.1658 30.8443C26.8217 30.8443 27.4889 30.6766 28.1672 30.3411C28.853 30.0057 29.4269 29.4914 29.8891 28.7981C30.3587 28.1049 30.5935 27.2216 30.5935 26.1482Z" fill="black"/>
<path d="M38.0653 33.17V21.1391C38.0653 19.7311 39.2067 18.5898 40.6146 18.5898V18.5898H40.7935C41.1066 17.74 41.6731 17.0505 42.493 16.5213C43.313 15.992 44.2373 15.7274 45.266 15.7274C45.4598 15.7274 45.702 15.7311 45.9928 15.7386C46.2835 15.746 46.5034 15.7572 46.6524 15.7721V18.4556C46.563 18.4332 46.358 18.3997 46.0375 18.355C45.7244 18.3028 45.3927 18.2767 45.0424 18.2767C44.2075 18.2767 43.4621 18.4519 42.8061 18.8022C42.1576 19.1451 41.6433 19.6222 41.2631 20.2334C40.8904 20.8372 40.7041 21.5267 40.7041 22.3019V33.17H38.0653Z" fill="black"/>
<path d="M56.4583 33.5278C54.8035 33.5278 53.3761 33.1625 52.1759 32.432C50.9833 31.6941 50.0627 30.6654 49.4142 29.346C48.7731 28.0192 48.4526 26.4762 48.4526 24.717C48.4526 22.9579 48.7731 21.4074 49.4142 20.0657C50.0627 18.7165 50.9646 17.6655 52.12 16.9126C53.2829 16.1523 54.6395 15.7721 56.19 15.7721C57.0845 15.7721 57.9678 15.9212 58.8399 16.2194C59.712 16.5175 60.5059 17.002 61.2215 17.6729C61.9371 18.3363 62.5073 19.2159 62.9322 20.3117C63.3571 21.4074 63.5695 22.7566 63.5695 24.3592V25.4773H50.331V23.1964H60.8861C60.8861 22.2274 60.6923 21.3627 60.3046 20.6024C59.9245 19.8421 59.3803 19.242 58.6722 18.8022C57.9715 18.3624 57.1441 18.1425 56.19 18.1425C55.1389 18.1425 54.2295 18.4034 53.4618 18.9252C52.7015 19.4395 52.1163 20.1104 51.7063 20.9378C51.2964 21.7652 51.0914 22.6522 51.0914 23.5989V25.1196C51.0914 26.4166 51.315 27.516 51.7622 28.418C52.2169 29.3125 52.8468 29.9945 53.6519 30.4641C54.4569 30.9263 55.3924 31.1574 56.4583 31.1574C57.1516 31.1574 57.7777 31.0605 58.3368 30.8667C58.9033 30.6654 59.3915 30.3672 59.8015 29.9722C60.2115 29.5696 60.5283 29.0702 60.7519 28.4739L63.3012 29.1895C63.0328 30.0542 62.5819 30.8145 61.9483 31.4704C61.3147 32.1189 60.532 32.6258 59.6002 32.9911C58.6685 33.3489 57.6212 33.5278 56.4583 33.5278Z" fill="black"/>
<path d="M86.9559 33.5257C85.4055 33.5257 84.0451 33.1567 82.8748 32.4188C81.712 31.6808 80.8026 30.6484 80.1466 29.3216C79.4981 27.9948 79.1738 26.4443 79.1738 24.6703C79.1738 22.8813 79.4981 21.3196 80.1466 19.9854C80.8026 18.6511 81.712 17.615 82.8748 16.877C84.0451 16.139 85.4055 15.7701 86.9559 15.7701C88.5064 15.7701 89.863 16.139 91.0259 16.877C92.1962 17.615 93.1056 18.6511 93.7541 19.9854C94.41 21.3196 94.738 22.8813 94.738 24.6703C94.738 26.4443 94.41 27.9948 93.7541 29.3216C93.1056 30.6484 92.1962 31.6808 91.0259 32.4188C89.863 33.1567 88.5064 33.5257 86.9559 33.5257ZM86.9559 31.1553C88.1337 31.1553 89.1027 30.8534 89.863 30.2496C90.6233 29.6459 91.1861 28.852 91.5514 27.8681C91.9166 26.8841 92.0993 25.8182 92.0993 24.6703C92.0993 23.5223 91.9166 22.4527 91.5514 21.4613C91.1861 20.4699 90.6233 19.6686 89.863 19.0573C89.1027 18.4461 88.1337 18.1405 86.9559 18.1405C85.7782 18.1405 84.8091 18.4461 84.0488 19.0573C83.2885 19.6686 82.7257 20.4699 82.3605 21.4613C81.9952 22.4527 81.8126 23.5223 81.8126 24.6703C81.8126 25.8182 81.9952 26.8841 82.3605 27.8681C82.7257 28.852 83.2885 29.6459 84.0488 30.2496C84.8091 30.8534 85.7782 31.1553 86.9559 31.1553Z" fill="black"/>
<path d="M98.766 33.1679V21.137C98.766 19.7291 99.9074 18.5877 101.315 18.5877V18.5877H101.494C101.807 17.7379 102.374 17.0484 103.194 16.5192C104.014 15.99 104.938 15.7253 105.967 15.7253C106.16 15.7253 106.403 15.7291 106.693 15.7365C106.984 15.744 107.204 15.7552 107.353 15.7701V18.4535C107.264 18.4312 107.059 18.3976 106.738 18.3529C106.425 18.3007 106.093 18.2746 105.743 18.2746C104.908 18.2746 104.163 18.4498 103.507 18.8002C102.858 19.143 102.344 19.6201 101.964 20.2313C101.591 20.8351 101.405 21.5246 101.405 22.2999V33.1679H98.766Z" fill="black"/>
<path d="M110.481 33.1679V21.2265C110.481 19.8185 111.622 18.6772 113.03 18.6772V18.6772H113.254C113.612 17.7603 114.19 17.0484 114.987 16.5416C115.785 16.0272 116.743 15.7701 117.861 15.7701C118.994 15.7701 119.937 16.0272 120.689 16.5416C121.45 17.0484 122.042 17.7603 122.467 18.6772H122.646C123.086 17.7901 123.746 17.0857 124.625 16.5639C125.505 16.0347 126.56 15.7701 127.79 15.7701C129.325 15.7701 130.581 16.2509 131.558 17.2124C132.534 18.1666 133.022 19.6537 133.022 21.6737V33.1679H130.384V21.6737C130.384 20.4065 130.037 19.5008 129.344 18.9567C128.65 18.4125 127.834 18.1405 126.895 18.1405C125.687 18.1405 124.752 18.5057 124.089 19.2362C123.425 19.9593 123.093 20.8761 123.093 21.9868V33.1679H120.41V21.4054C120.41 20.4289 120.093 19.6425 119.46 19.0461C118.826 18.4424 118.01 18.1405 117.011 18.1405C116.325 18.1405 115.684 18.3231 115.088 18.6883C114.499 19.0536 114.022 19.5605 113.657 20.209C113.299 20.85 113.12 21.5917 113.12 22.434V33.1679H110.481Z" fill="black"/>
<path d="M95.236 7.84525C94.1782 5.6524 90.7303 2.51869 84.9624 2.51869C82.6857 2.51869 77.4583 3.9522 75 11.4134L70.961 24.8253L66.922 38.2373C64.4636 45.6985 59.2363 47.132 56.9596 47.132C51.1917 47.132 47.7437 43.9983 46.6859 41.8054" stroke="black" stroke-width="2.4"/>
</svg>
